Coordinates
version=1
nRows=22
nColumns=24
inDegrees=yes

Units are S.I. units (second, meters, Newtons, ...)
Angles are in degrees.

endheader
time	pelvis_tilt	pelvis_list	pelvis_rotation	pelvis_tx	pelvis_ty	pelvis_tz	hip_flexion_r	hip_adduction_r	hip_rotation_r	knee_angle_r	ankle_angle_r	subtalar_angle_r	mtp_angle_r	hip_flexion_l	hip_adduction_l	hip_rotation_l	knee_angle_l	ankle_angle_l	subtalar_angle_l	mtp_angle_l	lumbar_extension	lumbar_bending	lumbar_rotation
      0.45800000	     -8.43936646	      0.35411045	     -0.31352239	     -0.76695087	      1.02923620	      0.30148028	     37.11558052	      0.23020046	     -4.21909573	    -19.31541488	      6.74604736	     -0.85355888	      8.22061016	     -5.28060711	      0.32791601	     -0.80396317	    -11.43928359	     23.05411830	      8.25072784	      4.26186165	     -4.36208929	     -0.78967974	     -2.20843156
      0.46216667	     -8.39449505	      0.38440885	     -0.24232382	     -0.76085281	      1.02803472	      0.30171269	     37.05441601	      0.23381281	     -3.93867592	    -19.26681570	      6.62397995	     -1.12757632	      8.20730414	     -5.46764567	      0.32144180	     -0.90836261	    -11.93317923	     23.22812536	      8.47169758	      4.31090586	     -4.38749583	     -0.77164329	     -2.23096799
      0.46633333	     -8.37206783	      0.44824245	     -0.16542629	     -0.75474251	      1.02680893	      0.30196719	     37.03483530	      0.20543159	     -3.64967791	    -19.34394069	      6.54058884	     -1.40351750	      8.19570594	     -5.60493897	      0.34631989	     -0.99344880	    -12.47459743	     23.36474738	      8.72071284	      4.37133637	     -4.38915692	     -0.80792232	     -2.26522120
      0.47050000	     -8.27886278	      0.44933178	     -0.09249692	     -0.74855882	      1.02575425	      0.30222761	     36.91871349	      0.23767516	     -3.41489439	    -19.46933740	      6.41132551	     -1.72113236	      8.17925265	     -5.78548457	      0.28690365	     -1.21494918	    -13.10187238	     23.52761916	      9.08658441	      4.48277728	     -4.45686835	     -0.76096793	     -2.28960922
      0.47466667	     -8.22415714	      0.46567217	     -0.02312990	     -0.74234547	      1.02464765	      0.30249263	     36.86157976	      0.25741873	     -3.18514978	    -19.71347607	      6.28965044	     -2.02945525	      8.15881217	     -5.90311081	      0.24112795	     -1.42565801	    -13.77527200	     23.69250208	      9.48271522	      4.66724082	     -4.47798282	     -0.71429983	     -2.30099717
      0.47883333	     -8.14629265	      0.48842118	      0.04260061	     -0.73611998	      1.02361406	      0.30279117	     36.78039460	      0.27808985	     -2.94752737	    -20.03165544	      6.17281239	     -2.37270419	      8.14019235	     -6.02562625	      0.19707960	     -1.62324040	    -14.49651834	     23.78024637	      9.84260087	      4.86008306	     -4.52696854	     -0.69405330	     -2.32736075
      0.48300000	     -8.05393929	      0.50637294	      0.10732333	     -0.72987843	      1.02264490	      0.30309643	     36.68860221	      0.30580001	     -2.71330420	    -20.42874972	      6.04308243	     -2.72130597	      8.12210801	     -6.13977134	      0.14153409	     -1.82612806	    -15.26469719	     23.85474311	     10.24330332	      5.07184365	     -4.60455703	     -0.64575201	     -2.34249825
      0.48716667	     -7.96924172	      0.50243021	      0.16809044	     -0.72357202	      1.02170430	      0.30342539	     36.60052666	      0.35543859	     -2.52581242	    -20.88357131	      5.89574759	     -3.08668789	      8.10125376	     -6.20552840	      0.04658474	     -2.11440385	    -16.12342667	     23.91082971	     10.68984960	      5.35334357	     -4.63745686	     -0.58747667	     -2.35151498
      0.49133333	     -7.86206463	      0.50013022	      0.22041908	     -0.71727207	      1.02083222	      0.30378082	     36.49594202	      0.41124473	     -2.33041375	    -21.40569735	      5.74760980	     -3.45937461	      8.07825304	     -6.27672407	     -0.05153565	     -2.39154867	    -17.02289787	     23.93029641	     11.14791996	      5.68251826	     -4.71273727	     -0.51989881	     -2.34992999
      0.49550000	     -7.76158741	      0.49696365	      0.27024610	     -0.71095604	      1.01999368	      0.30416272	     36.40227067	      0.47073748	     -2.14897079	    -21.98376602	      5.59984881	     -3.83213687	      8.05152788	     -6.30313122	     -0.16087908	     -2.68579423	    -17.99873553	     23.90929964	     11.61198041	      6.05606763	     -4.77591839	     -0.44887224	     -2.34442222
      0.49966667	     -7.65383655	      0.48667206	      0.31462189	     -0.70463603	      1.01920816	      0.30456656	     36.30473083	      0.54089058	     -1.97946432	    -22.61030818	      5.45603133	     -4.20498469	      8.01971105	     -6.30461748	     -0.28796933	     -2.99790955	    -19.04181120	     23.84604615	     12.08660782	      6.48073652	     -4.84263020	     -0.37357896	     -2.32830140
      0.50383333	     -7.49640404	      0.48796946	      0.35344199	     -0.69832905	      1.01853793	      0.30496477	     36.17907759	      0.58967883	     -1.88251880	    -23.32809670	      5.43696315	     -4.38672855	      7.76344504	     -6.33477527	     -0.40863863	     -3.30607937	    -20.11637302	     23.64937823	     12.54825632	     10.18666880	     -4.99230214	     -0.30083197	     -2.27999347
      0.50800000	     -7.42673335	      0.47380466	      0.38721787	     -0.69201712	      1.01780034	      0.30544853	     36.11523751	      0.68536708	     -1.65706911	    -23.99564117	      5.22171675	     -4.92202995	      7.74182754	     -6.23348392	     -0.54958088	     -3.56557056	    -21.27893262	     23.46551570	     12.88126453	     10.30263613	     -5.00078769	     -0.22048800	     -2.27844004
      0.51216667	     -7.29914175	      0.44640908	      0.42271010	     -0.68571001	      1.01718938	      0.30591784	     36.00699083	      0.77660784	     -1.53728715	    -24.73326841	      5.15874289	     -5.24323683	      7.71037736	     -6.14866780	     -0.72855648	     -3.91049801	    -22.52258992	     23.25890131	     13.41380344	     10.54046792	     -5.09751175	     -0.11347443	     -2.22777897
      0.51633333	     -7.18751573	      0.43375029	      0.44072154	     -0.67942604	      1.01661172	      0.30644415	     35.91975360	      0.86939298	     -1.37848298	    -25.49293166	      5.11118312	     -5.57354615	      7.31850738	     -6.01877481	     -0.89379242	     -4.22796895	    -23.80925556	     22.90559965	     13.80105096	     13.31824437	     -5.17491609	     -0.03213987	     -2.17772690
      0.52050000	     -7.09048852	      0.44093225	      0.45580515	     -0.67318423	      1.01604860	      0.30698871	     35.86078810	      0.94420529	     -1.22036601	    -26.29312392	      5.13537364	     -5.85798968	      7.30788603	     -5.83894080	     -1.04016841	     -4.50771923	    -25.15631509	     22.52267895	     14.18990457	     13.37466297	     -5.25084021	      0.02757119	     -2.15288058
      0.52466667	     -6.97341488	      0.39169317	      0.46198725	     -0.66691178	      1.01557936	      0.30755608	     35.75652460	      1.07547363	     -1.10324107	    -27.05729655	      5.13842087	     -6.14581226	      7.28017395	     -5.63134321	     -1.27626554	     -4.89102747	    -26.60673857	     22.13181717	     14.64881300	     13.51439813	     -5.31722932	      0.15177446	     -2.08790941
      0.52883333	     -6.86547194	      0.35767844	      0.46649257	     -0.66069367	      1.01515143	      0.30814393	     35.66558133	      1.19488097	     -0.97734082	    -27.83835006	      5.21744083	     -6.40113841	      7.24093498	     -5.38528590	     -1.49606486	     -5.21210083	    -28.09167570	     21.64380962	     15.03602416	     13.70766197	     -5.39221393	      0.25924646	     -2.02430475
      0.53300000	     -6.77075477	      0.32075641	      0.46873302	     -0.65449054	      1.01476780	      0.30873715	     35.57796602	      1.31702046	     -0.85923985	    -28.60652034	      5.34665769	     -6.63228553	      7.18977771	     -5.08809944	     -1.72781960	     -5.52625956	    -29.63200467	     21.06987345	     15.39277772	     13.94682008	     -5.45140868	      0.37286565	     -1.95866380
      0.53716667	     -6.66204261	      0.27528560	      0.47169381	     -0.64832872	      1.01448284	      0.30932438	     35.46021077	      1.44713812	     -0.74889638	    -29.35126180	      5.52822477	     -6.84622661	      6.31524782	     -4.77794210	     -1.96710244	     -5.78182240	    -31.19942874	     20.33741215	     15.59991393	     17.63800526	     -5.53783838	      0.50503314	     -1.86982410
      0.54133333	     -6.55610319	      0.23905858	      0.46298084	     -0.64220186	      1.01423704	      0.30992129	     35.34047327	      1.56683407	     -0.65545170	    -30.08729026	      5.77517276	     -6.97029439	      6.30818652	     -4.42864513	     -2.20407219	     -6.04948412	    -32.82464943	     19.61970662	     15.83546403	     17.67355913	     -5.62032323	      0.61939429	     -1.81499552
      0.54550000	     -6.46530635	      0.18570674	      0.45507507	     -0.63610274	      1.01404083	      0.31051403	     35.21348657	      1.70190414	     -0.57436694	    -30.77984043	      6.03666631	     -7.11117112	      6.28678164	     -4.03083383	     -2.46442738	     -6.29528621	    -34.49386156	     18.86189547	     16.03050445	     17.74272560	     -5.68320184	      0.76148913	     -1.73317045
